# xmcd CD database file
# Copyright (C) 1995-1998 Ti Kan
#
# Track frame offsets:
#	182
#	14857
#	32107
#	49857
#	69282
#	87607
#	100807
#	120832
#	145107
#	162232
#	177082
#	193482
#	209932
#	225232
#	239182
#	253382
#	269557
#
# Disc length: 3815 seconds
#
# Revision: 1
# Processed by: cddbd v1.4PL0 Copyright (c) Steve Scherf et al.
# Submitted via: CDex 1.30Release
#
DISCID=060ee511
DTITLE=Various Artist - country singles for radio 
DYEAR=1900
DGENRE=Country
TTITLE0=john denver -dreamland express
TTITLE1=deana carter - strawberry wine 
TTITLE2=clint beatie - girls on the ave.
TTITLE3=pat drummond - the cable and the wheel
TTITLE4=susan mccarter - money only takes you so far 
TTITLE5=keith urban - walkin the country
TTITLE6=lindsay hammond joey 
TTITLE7=peter busher - father's footsteps 
TTITLE8=cam fletcher and elisabeth lord - where i should have been 
TTITLE9=cj turner - harley rider 
TTITLE10=clelia adams - i want to be with you always 
TTITLE11=dave debs and rosemary rae - a small romance 
TTITLE12=dale hooper - twinkle twinkle 
TTITLE13=brielle - the one 
TTITLE14=steve lowry - doin ' my best 
TTITLE15=coad sisters - last nigt 
TTITLE16=john berry - she's taken a shine 
EXTD=ID3G:   2
EXTT0=
EXTT1=
EXTT2=
EXTT3=
EXTT4=
EXTT5=
EXTT6=
EXTT7=
EXTT8=
EXTT9=
EXTT10=
EXTT11=
EXTT12=
EXTT13=
EXTT14=
EXTT15=
EXTT16=
PLAYORDER=
